<?xml version="1.0" encoding="UTF-8" standalone="no"?>
<!-- Created with Inkscape (http://www.inkscape.org/) -->

<svg
   xmlns:dc="http://purl.org/dc/elements/1.1/"
   xmlns:cc="http://creativecommons.org/ns#"
   xmlns:rdf="http://www.w3.org/1999/02/22-rdf-syntax-ns#"
   xmlns:svg="http://www.w3.org/2000/svg"
   xmlns="http://www.w3.org/2000/svg"
   xmlns:sodipodi="http://sodipodi.sourceforge.net/DTD/sodipodi-0.dtd"
   xmlns:inkscape="http://www.inkscape.org/namespaces/inkscape"
   id="svg4206"
   version="1.1"
   inkscape:version="0.91 r13725"
   width="318.68445"
   height="204.91389"
   viewBox="0 0 318.68445 204.91389"
   sodipodi:docname="geweih.svg">
  <metadata
     id="metadata4212">
    <rdf:RDF>
      <cc:Work
         rdf:about="">
        <dc:format>image/svg+xml</dc:format>
        <dc:type
           rdf:resource="http://purl.org/dc/dcmitype/StillImage" />
        <dc:title></dc:title>
      </cc:Work>
    </rdf:RDF>
  </metadata>
  <defs
     id="defs4210" />
  <sodipodi:namedview
     pagecolor="#ffffff"
     bordercolor="#666666"
     borderopacity="1"
     objecttolerance="10"
     gridtolerance="10"
     guidetolerance="10"
     inkscape:pageopacity="0"
     inkscape:pageshadow="2"
     inkscape:window-width="1916"
     inkscape:window-height="1156"
     id="namedview4208"
     showgrid="false"
     fit-margin-top="0"
     fit-margin-left="0"
     fit-margin-right="0"
     fit-margin-bottom="0"
     inkscape:zoom="1.3341404"
     inkscape:cx="66.635481"
     inkscape:cy="85.503586"
     inkscape:window-x="1280"
     inkscape:window-y="42"
     inkscape:window-maximized="0"
     inkscape:current-layer="svg4206" />
  <path
     style="fill:#ffffff"
     d="m 105.87707,201.74798 c -0.72125,-1.74126 -3.81334,-5.62944 -6.871322,-8.64041 -4.561,-4.49088 -8.5245,-6.90321 -22.05995,-13.42651 C 42.297928,162.98282 36.220341,159.85477 28.714968,154.85732 10.602794,142.79734 -0.08815731,125.13321 5.476944e-4,107.4139 0.01970769,103.58727 0.28118969,103.92053 6.0336107,115.10287 c 4.8265633,9.38254 7.1982383,12.78626 12.0196123,17.25 6.247814,5.78438 7.892573,6.62188 7.892573,4.01887 0,-3.39431 -3.399111,-17.86009 -8.044519,-34.2355 -6.695833,-23.603295 -8.2457823,-32.507925 -7.792023,-44.765995 0.328828,-8.8831 0.749283,-10.83679 3.561619,-16.54946 1.753827,-3.56253 4.392932,-7.58647 5.864677,-8.9421 l 2.675901,-2.46478 -0.73465,4 c -2.546903,13.86731 -3.228347,27.13319 -1.893895,36.86908 0.53204,3.88166 0.872748,4.45266 2.065937,3.46241 2.21698,-1.83993 3.872762,-5.63796 6.240026,-14.31334 4.488906,-16.45063 14.839899,-34.60583 25.980089,-45.56799 5.94686,-5.8518202 18.59542,-14.76491022 19.56994,-13.79040022 0.20669,0.2067 -1.90993,3.29281002 -4.70361,6.85803002 C 51.251608,29.243885 39.473423,52.995565 35.496417,73.960635 c -2.520275,13.28581 -1.569025,41.039025 1.520483,44.360885 1.26246,1.3574 4.00665,-1.34256 6.004378,-5.90762 0.96275,-2.2 3.63691,-13.449995 5.94257,-24.999995 4.52651,-22.67519 7.14936,-30.97608 12.0282,-38.06723 2.8787,-4.18404 10.75029,-10.96956 11.66463,-10.05522 0.21534,0.21534 -0.95665,2.51737 -2.60442,5.11563 -4.13409,6.51878 -8.66477,19.49594 -10.09064,28.90245 -1.37825,9.09239 -0.53803,21.60437 1.45081,21.60437 2.20619,0 6.39903,-3.95354 10.9498,-10.32485 2.42587,-3.39633 5.57457,-7.26609 6.99712,-8.59946 l 2.58645,-2.42432 0,2.45253 c 0,4.35038 -6.48977,16.13613 -14.5349,26.396095 -13.89249,17.71711 -15.4667,19.91263 -18.10536,25.25106 -2.88804,5.84296 -3.31637,12.14235 -1.05941,15.58052 5.38324,8.20064 18.94903,15.86636 28.41401,16.05611 l 5.60203,0.11231 2.28231,-10.80573 c 2.46139,-11.65361 4.36008,-15.83642 8.63495,-19.02277 3.73209,-2.78178 4.31772,-1.67311 2.12228,4.01774 -1.21537,3.15039 -1.85586,7.39928 -1.85576,12.31076 2.3e-4,10.78045 2.62984,14.99972 18.938312,30.38693 13.06586,12.32777 17.53899,18.28836 19.03377,25.36307 l 0.68668,3.25 -12.45813,0 -12.45814,0 z m 78.80738,1.70343 c 0,-3.30219 4.24791,-12.46715 7.58601,-16.36696 1.9635,-2.29391 7.9224,-7.73079 13.242,-12.08195 17.29152,-14.14359 18.88922,-17.96208 15.71024,-37.54732 -0.79977,-4.9273 -1.29532,-9.11755 -1.10121,-9.31166 0.19411,-0.19411 1.91836,1.02154 3.83167,2.70145 4.82565,4.23698 7.8313,11.76883 8.4814,21.25354 l 0.53568,7.81539 3.147,0 c 4.32206,0 13.75801,-2.55479 18.84771,-5.10304 8.20753,-4.10923 14.7195,-12.40329 14.7195,-18.74768 0,-3.06141 -4.89296,-11.0118 -19.47814,-31.64928 -7.93294,-11.224805 -15.52186,-25.331125 -15.52186,-28.852085 0,-1.92718 0.0332,-1.92801 2.1164,-0.0529 1.16401,1.04775 3.47843,3.92999 5.14313,6.40499 4.63861,6.89642 9.89086,12 12.34958,12 1.87527,0 2.30213,-0.7192 2.86776,-4.83181 1.43023,-10.399 -2.90714,-29.12959 -10.01283,-43.2396 -4.10793,-8.15726 -2.82001,-8.22381 4.64775,-0.24016 9.50577,10.16243 13.75624,21.31904 16.75744,43.98478 2.1051,15.898175 4.47481,23.422455 8.59607,27.294185 l 2.30365,2.16417 1.36553,-5.31578 c 0.89548,-3.48594 1.33994,-10.82345 1.2912,-21.315785 -0.0652,-14.04629 -0.3961,-17.17303 -2.70949,-25.60658 -4.99104,-18.19499 -15.26435,-38.25963 -29.32628,-57.2767102 -3.58657,-4.8504 -6.33203,-9.00792002 -6.10103,-9.23892002 0.75073,-0.75074 12.11779,7.35265002 17.3471,12.36646022 11.13766,10.67869 20.42505,26.47203 26.31896,44.75575 3.86866,12.00115 6.95531,17.98936 8.48491,16.46104 2.00607,-2.0044 1.81636,-25.54611 -0.28576,-35.46104 -1.04948,-4.95 -1.74973,-9.17625 -1.55612,-9.39166 0.19361,-0.21542 1.27139,0.68458 2.39506,2 7.437,8.70605 10.52031,19.54227 9.64347,33.89166 -0.61703,10.09762 -3.02502,21.05736 -9.65479,43.942795 -2.25502,7.78417 -4.69614,17.28147 -5.4247,21.10512 -1.16759,6.12775 -1.14493,6.95208 0.19113,6.95208 5.4858,0 15.32312,-11.41011 19.68996,-22.838 2.59845,-6.80009 7.5619,-13.31414 7.5619,-9.92428 0,5.2888 -3.47329,18.07095 -6.66646,24.53343 -4.3347,8.77275 -13.38438,18.49667 -23.33354,25.07199 -3.575,2.36269 -17.81227,9.84193 -31.63837,16.62053 -32.92774,16.14367 -45.03693,24.41012 -46.95559,32.05467 -0.62123,2.47519 -0.65516,2.48166 -13.01445,2.48166 -10.20682,0 -12.39159,-0.25785 -12.39159,-1.46249 z"
     id="path4216"
     inkscape:connector-curvature="0"
     sodipodi:nodetypes="sssssssssssscssssscsssssssssssscssssscsssssscccsssssssscssssssssssssscssssssssscsssssssssssss" />
</svg>
