<?xml version="1.0" encoding="UTF-8" standalone="no"?>
<!-- Created with Inkscape (http://www.inkscape.org/) -->

<svg
   xmlns:dc="http://purl.org/dc/elements/1.1/"
   xmlns:cc="http://creativecommons.org/ns#"
   xmlns:rdf="http://www.w3.org/1999/02/22-rdf-syntax-ns#"
   xmlns:svg="http://www.w3.org/2000/svg"
   xmlns="http://www.w3.org/2000/svg"
   xmlns:sodipodi="http://sodipodi.sourceforge.net/DTD/sodipodi-0.dtd"
   xmlns:inkscape="http://www.inkscape.org/namespaces/inkscape"
   width="190.67545mm"
   height="78.320518mm"
   viewBox="0 0 675.62166 277.51365"
   id="svg2"
   version="1.1"
   inkscape:version="0.91 r13725"
   sodipodi:docname="logo.svg">
  <defs
     id="defs4" />
  <sodipodi:namedview
     id="base"
     pagecolor="#ffffff"
     bordercolor="#666666"
     borderopacity="1.0"
     inkscape:pageopacity="0.0"
     inkscape:pageshadow="2"
     inkscape:zoom="1.979899"
     inkscape:cx="274.71759"
     inkscape:cy="-12.908079"
     inkscape:document-units="px"
     inkscape:current-layer="layer1"
     showgrid="false"
     fit-margin-top="0"
     fit-margin-left="0"
     fit-margin-right="0"
     fit-margin-bottom="0"
     inkscape:window-width="1916"
     inkscape:window-height="1156"
     inkscape:window-x="1280"
     inkscape:window-y="42"
     inkscape:window-maximized="0" />
  <metadata
     id="metadata7">
    <rdf:RDF>
      <cc:Work
         rdf:about="">
        <dc:format>image/svg+xml</dc:format>
        <dc:type
           rdf:resource="http://purl.org/dc/dcmitype/StillImage" />
        <dc:title></dc:title>
      </cc:Work>
    </rdf:RDF>
  </metadata>
  <g
     inkscape:label="Ebene 1"
     inkscape:groupmode="layer"
     id="layer1"
     transform="translate(40.16363,-284.6638)">
    <path
       sodipodi:nodetypes="sssssssssssscssssscsssssssssssscssssscsssssscccsssssssscssssssssssssscssssssssscsssssssssssss"
       inkscape:connector-curvature="0"
       id="path4216"
       d="m 283.83261,486.41177 c -0.72125,-1.74126 -3.81334,-5.62944 -6.87132,-8.64041 -4.561,-4.49088 -8.5245,-6.90321 -22.05995,-13.42651 -34.64787,-16.69824 -40.72546,-19.82629 -48.23083,-24.82374 -18.11218,-12.05998 -28.80313,-29.72411 -28.71443,-47.44342 0.0192,-3.82663 0.28065,-3.49337 6.03307,7.68897 4.82656,9.38254 7.19824,12.78626 12.01961,17.25 6.24781,5.78438 7.89257,6.62188 7.89257,4.01887 0,-3.39431 -3.39911,-17.86009 -8.04452,-34.2355 -6.69583,-23.60329 -8.24578,-32.50792 -7.79202,-44.76599 0.32883,-8.8831 0.74928,-10.83679 3.56162,-16.54946 1.75383,-3.56253 4.39293,-7.58647 5.86468,-8.9421 l 2.6759,-2.46478 -0.73465,4 c -2.5469,13.86731 -3.22835,27.13319 -1.8939,36.86908 0.53204,3.88166 0.87275,4.45266 2.06594,3.46241 2.21698,-1.83993 3.87276,-5.63796 6.24003,-14.31334 4.4889,-16.45063 14.8399,-34.60583 25.98009,-45.56799 5.94686,-5.85182 18.59542,-14.76491 19.56994,-13.7904 0.20669,0.2067 -1.90993,3.29281 -4.70361,6.85803 -17.48368,22.31219 -29.26187,46.06387 -33.23888,67.02894 -2.52027,13.28581 -1.56902,41.03902 1.52049,44.36088 1.26246,1.3574 4.00665,-1.34256 6.00438,-5.90762 0.96275,-2.2 3.63691,-13.44999 5.94257,-24.99999 4.52651,-22.67519 7.14936,-30.97608 12.0282,-38.06723 2.8787,-4.18404 10.75029,-10.96956 11.66463,-10.05522 0.21534,0.21534 -0.95665,2.51737 -2.60442,5.11563 -4.13409,6.51878 -8.66477,19.49594 -10.09064,28.90245 -1.37825,9.09239 -0.53803,21.60437 1.45081,21.60437 2.20619,0 6.39903,-3.95354 10.9498,-10.32485 2.42587,-3.39633 5.57457,-7.26609 6.99712,-8.59946 l 2.58645,-2.42432 0,2.45253 c 0,4.35038 -6.48977,16.13613 -14.5349,26.39609 -13.89249,17.71711 -15.4667,19.91263 -18.10536,25.25106 -2.88804,5.84296 -3.31637,12.14235 -1.05941,15.58052 5.38324,8.20064 18.94903,15.86636 28.41401,16.05611 l 5.60203,0.11231 2.28231,-10.80573 c 2.46139,-11.65361 4.36008,-15.83642 8.63495,-19.02277 3.73209,-2.78178 4.31772,-1.67311 2.12228,4.01774 -1.21537,3.15039 -1.85586,7.39928 -1.85576,12.31076 2.3e-4,10.78045 2.62984,14.99972 18.93831,30.38693 13.06586,12.32777 17.53899,18.28836 19.03377,25.36307 l 0.68668,3.25 -12.45813,0 -12.45814,0 z m 78.80738,1.70343 c 0,-3.30219 4.24791,-12.46715 7.58601,-16.36696 1.9635,-2.29391 7.9224,-7.73079 13.242,-12.08195 17.29152,-14.14359 18.88922,-17.96208 15.71024,-37.54732 -0.79977,-4.9273 -1.29532,-9.11755 -1.10121,-9.31166 0.19411,-0.19411 1.91836,1.02154 3.83167,2.70145 4.82565,4.23698 7.8313,11.76883 8.4814,21.25354 l 0.53568,7.81539 3.147,0 c 4.32206,0 13.75801,-2.55479 18.84771,-5.10304 8.20753,-4.10923 14.7195,-12.40329 14.7195,-18.74768 0,-3.06141 -4.89296,-11.0118 -19.47814,-31.64928 -7.93294,-11.2248 -15.52186,-25.33112 -15.52186,-28.85208 0,-1.92718 0.0332,-1.92801 2.1164,-0.0529 1.16401,1.04775 3.47843,3.92999 5.14313,6.40499 4.63861,6.89642 9.89086,12 12.34958,12 1.87527,0 2.30213,-0.7192 2.86776,-4.83181 1.43023,-10.399 -2.90714,-29.12959 -10.01283,-43.2396 -4.10793,-8.15726 -2.82001,-8.22381 4.64775,-0.24016 9.50577,10.16243 13.75624,21.31904 16.75744,43.98478 2.1051,15.89817 4.47481,23.42245 8.59607,27.29418 l 2.30365,2.16417 1.36553,-5.31578 c 0.89548,-3.48594 1.33994,-10.82345 1.2912,-21.31578 -0.0652,-14.04629 -0.3961,-17.17303 -2.70949,-25.60658 -4.99104,-18.19499 -15.26435,-38.25963 -29.32628,-57.27671 -3.58657,-4.8504 -6.33203,-9.00792 -6.10103,-9.23892 0.75073,-0.75074 12.11779,7.35265 17.3471,12.36646 11.13766,10.67869 20.42505,26.47203 26.31896,44.75575 3.86866,12.00115 6.95531,17.98936 8.48491,16.46104 2.00607,-2.0044 1.81636,-25.54611 -0.28576,-35.46104 -1.04948,-4.95 -1.74973,-9.17625 -1.55612,-9.39166 0.19361,-0.21542 1.27139,0.68458 2.39506,2 7.437,8.70605 10.52031,19.54227 9.64347,33.89166 -0.61703,10.09762 -3.02502,21.05736 -9.65479,43.94279 -2.25502,7.78417 -4.69614,17.28147 -5.4247,21.10512 -1.16759,6.12775 -1.14493,6.95208 0.19113,6.95208 5.4858,0 15.32312,-11.41011 19.68996,-22.838 2.59845,-6.80009 7.5619,-13.31414 7.5619,-9.92428 0,5.2888 -3.47329,18.07095 -6.66646,24.53343 -4.3347,8.77275 -13.38438,18.49667 -23.33354,25.07199 -3.575,2.36269 -17.81227,9.84193 -31.63837,16.62053 -32.92774,16.14367 -45.03693,24.41012 -46.95559,32.05467 -0.62123,2.47519 -0.65516,2.48166 -13.01445,2.48166 -10.20682,0 -12.39159,-0.25785 -12.39159,-1.46249 z"
       style="fill:#ffffff" />
    <g
       style="font-style:normal;font-variant:normal;font-weight:bold;font-stretch:normal;font-size:147.71211243px;line-height:125%;font-family:Vollkorn;-inkscape-font-specification:'Vollkorn, Bold';text-align:start;letter-spacing:0px;word-spacing:0px;writing-mode:lr-tb;text-anchor:start;fill:#ff0000;fill-opacity:1;stroke:none;stroke-width:1px;stroke-linecap:butt;stroke-linejoin:miter;stroke-opacity:1"
       id="text4155">
      <path
         d="m 40.115362,529.68077 q 4.8745,0.44313 9.010439,1.92025 4.135939,1.32941 6.056197,3.10196 -3.397379,10.19213 -4.579076,26.44047 -17.430029,-0.29543 -38.552861,-0.29543 -10.4875603,0 -23.78165,0.14771 -13.294091,0.14772 -21.861393,0.29543 0,-7.09018 1.181697,-11.52155 4.135939,-0.29542 6.056196,-1.62483 2.06797,-1.32941 2.806531,-4.57907 0.886272,-3.39738 0.886272,-10.33985 l 0,-44.90448 q 0,-6.79476 -0.73856,-9.89672 -0.738561,-3.24966 -2.80653,-4.43136 -1.920258,-1.32941 -6.351621,-1.92026 -1.033985,-4.13594 -1.033985,-11.52154 13.737226,0.44313 40.0299824,0.44313 27.4744526,0 39.8822706,-0.44313 0.147712,6.35162 0.886272,13.88494 0.886273,7.53331 2.215682,12.40781 -6.942469,2.65882 -14.918923,2.65882 -1.624833,-8.86272 -5.908485,-13.14638 -4.283651,-4.28365 -14.475787,-4.28365 l -7.2378932,0 0,33.53065 0.1477121,0 q 6.9424691,0 9.3058631,-2.21568 2.511106,-2.36339 2.658818,-8.27188 4.579075,-1.77254 12.998666,-1.77254 -0.590849,9.45357 -0.590849,17.28231 0,9.01044 0.590849,17.57775 -8.419591,0 -12.703242,-1.47713 -0.590848,-6.05619 -3.101954,-7.97645 -2.511106,-2.06797 -9.1581511,-2.06797 l -0.1477121,0 0,15.8052 q 0,6.94247 1.0339848,10.63527 1.0339848,3.6928 3.3973784,5.16992 2.511106,1.47712 7.090182,1.47712 l 2.511105,0 q 7.533318,0 11.816969,-4.57907 4.431364,-4.72679 7.385606,-15.50977 z"
         style="font-style:normal;font-variant:normal;font-weight:bold;font-stretch:normal;font-size:147.71211243px;line-height:125%;font-family:Vollkorn;-inkscape-font-specification:'Vollkorn, Bold';text-align:start;writing-mode:lr-tb;text-anchor:start;opacity:1;fill:#ff0000;fill-opacity:1"
         id="path4332" />
      <path
         d="m 71.354169,479.75407 q -0.295424,-4.28365 -2.658818,-6.20391 -2.215681,-2.06797 -8.271878,-2.65881 0,-7.38561 1.920257,-11.07841 10.339848,0 19.202575,-1.47712 8.862727,-1.47712 12.703242,-3.39738 5.169924,2.36339 5.169924,9.45357 l 0,72.52665 q 0,5.02221 0.738559,7.68103 0.88627,2.65882 2.95424,3.84052 2.06797,1.03398 6.0562,1.3294 1.1817,3.69281 1.1817,11.52155 -5.46535,-0.44314 -24.96335,-0.44314 -19.645711,0 -24.963347,0.44314 0,-7.97646 1.329409,-11.52155 3.988227,-0.29542 5.908484,-1.3294 2.06797,-1.1817 2.806531,-3.69281 0.886272,-2.65882 0.886272,-7.82874 l 0,-57.16459 z"
         style="font-style:normal;font-variant:normal;font-weight:bold;font-stretch:normal;font-size:147.71211243px;line-height:125%;font-family:Vollkorn;-inkscape-font-specification:'Vollkorn, Bold';text-align:start;writing-mode:lr-tb;text-anchor:start;opacity:1;fill:#ff0000;fill-opacity:1"
         id="path4334" />
      <path
         d="m 157.01334,562.17743 q -18.61172,0 -28.95157,-8.5673 -10.19214,-8.71502 -10.19214,-26.29276 0,-9.15815 4.13594,-17.28231 4.28365,-8.12417 12.70324,-13.14638 8.56731,-5.02221 20.53199,-5.02221 8.71501,0 14.91892,1.47712 6.35162,1.32941 11.81697,4.28365 -1.92026,7.82874 -1.92026,19.498 -5.61306,2.5111 -15.50977,2.5111 0,-8.27188 -2.36339,-12.70324 -2.21568,-4.43136 -6.20391,-4.43136 -5.02221,0 -7.82874,6.49933 -2.65882,6.35162 -2.65882,16.24833 0,9.60129 4.72679,16.54376 4.72678,6.79476 14.32807,6.79476 9.01044,0 14.77121,-3.39738 3.39738,3.6928 3.39738,9.45357 -3.84051,3.54509 -10.63527,5.61306 -6.79476,1.92026 -15.06664,1.92026 z"
         style="font-style:normal;font-variant:normal;font-weight:bold;font-stretch:normal;font-size:147.71211243px;line-height:125%;font-family:Vollkorn;-inkscape-font-specification:'Vollkorn, Bold';text-align:start;writing-mode:lr-tb;text-anchor:start;opacity:1;fill:#ff0000;fill-opacity:1"
         id="path4336" />
      <path
         d="m 282.05396,549.76961 q 1.62483,3.98823 1.62483,11.52155 -13.29409,-0.44314 -20.53198,-0.44314 -17.43003,0 -24.07708,0.44314 0,-7.53332 1.47712,-11.52155 7.09019,0 7.09019,-14.47578 l 0,-10.19214 q 0,-8.27188 -2.21569,-11.66926 -2.06797,-3.54509 -6.94247,-3.54509 -5.46534,0 -9.01043,6.49934 -3.39738,6.35162 -3.39738,16.39604 l 0,4.13594 q 0,7.38561 1.62483,10.19214 1.77255,2.65881 5.31764,2.65881 1.03398,2.51111 1.3294,5.16993 0.29543,2.5111 0.29543,6.35162 -6.64705,-0.44314 -22.59995,-0.44314 -18.31631,0 -24.96335,0.44314 0,-7.68103 1.47712,-11.52155 5.61306,0 7.53332,-2.65881 1.92026,-2.65882 1.92026,-10.19214 l 0,-55.68747 q 0,-5.31763 -2.21569,-7.53331 -2.21568,-2.21569 -8.71501,-2.80653 0,-7.38561 1.92026,-11.07841 10.33984,0 19.20257,-1.47712 8.86273,-1.47712 12.70324,-3.39738 5.16993,2.36339 5.16993,9.45357 l 0,36.92803 q 0,3.24967 -1.77255,9.01044 1.47712,-3.6928 2.65882,-5.90848 1.32941,-2.21569 3.10195,-3.98823 3.69281,-3.6928 8.71502,-5.76077 5.16992,-2.06797 11.22612,-2.06797 10.9307,0 18.3163,6.05619 7.38561,5.90849 7.38561,18.02088 l 0,20.23656 q 0,7.38561 1.32941,10.19214 1.3294,2.65881 5.02221,2.65881 z"
         style="font-style:normal;font-variant:normal;font-weight:bold;font-stretch:normal;font-size:147.71211243px;line-height:125%;font-family:Vollkorn;-inkscape-font-specification:'Vollkorn, Bold';text-align:start;writing-mode:lr-tb;text-anchor:start;opacity:1;fill:#ff0000;fill-opacity:1"
         id="path4338" />
      <path
         d="m 381.38112,493.19587 q 8.41959,0 14.77121,-0.44313 0,2.65882 -0.44313,6.0562 -0.44314,3.39737 -1.32941,5.31763 -3.39738,0.73856 -5.31764,2.80653 -1.92026,2.06797 -3.39738,6.79476 l -14.18036,48.44957 q -13.14638,0 -16.83918,-1.32941 -6.20391,-12.85095 -9.01044,-19.05486 -2.80653,-6.35162 -4.72679,-13.29409 l -15.06663,33.67836 q -13.14638,0 -16.83918,-1.32941 -10.48756,-31.01954 -16.9869,-48.00643 -1.62483,-4.28366 -3.6928,-6.35162 -2.06797,-2.06797 -5.16992,-2.21569 -1.77255,-5.31763 -1.77255,-11.52154 11.37383,0.44313 21.56597,0.44313 13.88494,0 24.96335,-0.44313 0,5.76077 -1.77255,11.37383 -2.65882,0.29543 -3.6928,0.88627 -1.03399,0.44314 -1.03399,2.06797 0,1.47712 0.73856,4.28365 0.88628,2.65882 1.03399,3.39738 2.80653,9.749 3.98823,15.8052 l 14.77121,-38.25744 q 8.41959,0 12.11239,1.32941 8.86273,19.20258 15.8052,38.10973 l 4.13594,-16.9869 q 0.59084,-2.36339 0.59084,-4.57907 0,-2.65882 -1.3294,-3.98823 -1.32941,-1.32941 -4.43137,-2.06797 -1.62483,-4.8745 -1.62483,-11.37383 5.76077,0.44313 14.18036,0.44313 z"
         style="font-style:normal;font-variant:normal;font-weight:bold;font-stretch:normal;font-size:147.71211243px;line-height:125%;font-family:Vollkorn;-inkscape-font-specification:'Vollkorn, Bold';text-align:start;writing-mode:lr-tb;text-anchor:start;opacity:1;fill:#ff0000;fill-opacity:1"
         id="path4340" />
      <path
         d="m 479.51274,545.48596 q 0.29543,1.32941 0.29543,3.84052 0,4.43136 -1.92026,7.82874 -14.32808,0.29542 -26.58818,5.02221 -3.10196,-1.1817 -4.43136,-3.24967 -1.1817,-2.06796 -1.1817,-5.16992 0,-3.6928 1.03398,-7.3856 -3.10195,6.79475 -7.23789,10.04442 -7.38561,5.46535 -17.43003,5.46535 -23.63394,0 -23.63394,-17.72546 0,-9.30586 7.38561,-14.6235 7.3856,-5.31763 16.24833,-7.53331 9.01044,-2.21568 21.12283,-3.84052 0,-5.02221 -0.73856,-7.97645 -0.73856,-2.95424 -2.65882,-5.02221 -1.3294,-1.47713 -3.39737,-2.21569 -2.06797,-0.88627 -4.13594,-0.88627 -4.72679,0 -7.2379,4.13594 -2.5111,4.13594 -3.39738,11.96468 -5.90848,0 -9.45357,-0.29542 -3.39738,-0.44314 -6.64705,-1.62484 0.29543,-3.84051 0.29543,-6.05619 0,-5.76077 -1.32941,-12.99867 14.18036,-5.31763 31.7581,-5.31763 11.66926,0 18.16859,1.77254 6.49934,1.62483 10.04443,5.61306 3.24966,3.39738 5.02221,8.71502 1.77254,5.31763 1.77254,15.06663 l 0,9.749 q 0,5.61306 0.59085,8.12417 0.59085,2.5111 2.21568,3.54509 1.77255,0.88627 5.46535,1.03398 z M 443.17556,527.6128 q -9.30586,1.77254 -13.4418,4.72678 -3.98823,2.95425 -3.98823,7.2379 0,6.20391 5.61306,6.20391 4.57908,0 8.12417,-4.13594 3.6928,-4.28365 3.6928,-11.52155 l 0,-2.5111 z"
         style="font-style:normal;font-variant:normal;font-weight:bold;font-stretch:normal;font-size:147.71211243px;line-height:125%;font-family:Vollkorn;-inkscape-font-specification:'Vollkorn, Bold';text-align:start;writing-mode:lr-tb;text-anchor:start;opacity:1;fill:#ff0000;fill-opacity:1"
         id="path4342" />
      <path
         d="m 495.73797,479.75407 q -0.29542,-4.28365 -2.65881,-6.20391 -2.21569,-2.06797 -8.27188,-2.65881 0,-7.38561 1.92025,-11.07841 10.33985,0 19.20258,-1.47712 8.86273,-1.47712 12.70324,-3.39738 5.16992,2.36339 5.16992,9.45357 l 0,72.52665 q 0,5.02221 0.73857,7.68103 0.88627,2.65882 2.95424,3.84052 2.06797,1.03398 6.05619,1.3294 1.1817,3.69281 1.1817,11.52155 -5.46535,-0.44314 -24.96335,-0.44314 -19.64571,0 -24.96334,0.44314 0,-7.97646 1.32941,-11.52155 3.98822,-0.29542 5.90848,-1.3294 2.06797,-1.1817 2.80653,-3.69281 0.88627,-2.65882 0.88627,-7.82874 l 0,-57.16459 z"
         style="font-style:normal;font-variant:normal;font-weight:bold;font-stretch:normal;font-size:147.71211243px;line-height:125%;font-family:Vollkorn;-inkscape-font-specification:'Vollkorn, Bold';text-align:start;writing-mode:lr-tb;text-anchor:start;opacity:1;fill:#ff0000;fill-opacity:1"
         id="path4344" />
      <path
         d="m 631.61928,545.48596 q 0.29543,1.32941 0.29543,3.84052 0,4.43136 -1.92026,7.82874 -14.32808,0.29542 -26.58818,5.02221 -3.10196,-1.1817 -4.43137,-3.24967 -1.18169,-2.06796 -1.18169,-5.16992 0,-1.62483 0.59085,-5.46535 -3.39738,5.46535 -6.94247,8.12417 -3.10196,2.36339 -8.27188,4.13594 -5.02221,1.62483 -10.63527,1.62483 -13.58952,0 -22.00911,-7.3856 -8.27188,-7.38561 -8.27188,-22.45225 0,-12.11239 5.46535,-21.27054 5.46535,-9.15815 15.21435,-14.18036 9.89671,-5.02221 22.89538,-5.02221 4.72678,0 9.45357,1.03398 l 0,-11.66926 q 0,-5.31763 -2.21568,-7.53331 -2.21568,-2.21569 -8.71501,-2.80653 0,-7.38561 1.92025,-11.07841 10.33985,0 19.20258,-1.47712 8.86272,-1.47712 12.70324,-3.39738 5.16992,2.36339 5.16992,9.45357 l 0,67.50444 q 0,6.0562 0.59085,8.86273 0.59085,2.65881 2.21568,3.6928 1.77255,0.88627 5.46535,1.03398 z m -49.63127,2.21568 q 5.61306,0 9.45358,-5.31763 3.84051,-5.46535 3.84051,-16.98689 l 0,-18.02088 q -2.06797,-2.65882 -4.28365,-3.84052 -2.06797,-1.18169 -5.02221,-1.18169 -6.49933,0 -11.07841,5.61306 -4.43136,5.46534 -4.43136,20.08884 0,8.41959 2.5111,14.03265 2.65882,5.61306 9.01044,5.61306 z"
         style="font-style:normal;font-variant:normal;font-weight:bold;font-stretch:normal;font-size:147.71211243px;line-height:125%;font-family:Vollkorn;-inkscape-font-specification:'Vollkorn, Bold';text-align:start;writing-mode:lr-tb;text-anchor:start;opacity:1;fill:#ff0000;fill-opacity:1"
         id="path4346" />
    </g>
    <g
       style="font-style:normal;font-variant:normal;font-weight:bold;font-stretch:normal;font-size:147.71211243px;line-height:125%;font-family:Vollkorn;-inkscape-font-specification:'Vollkorn, Bold';text-align:start;letter-spacing:0px;word-spacing:0px;writing-mode:lr-tb;text-anchor:start;fill:#e0a0a0;fill-opacity:1;stroke:none;stroke-width:1px;stroke-linecap:butt;stroke-linejoin:miter;stroke-opacity:1"
       id="text4155-3">
      <path
         d="m 33.544714,525.09959 q 4.8745,0.44314 9.010439,1.92026 4.135939,1.32941 6.056196,3.10195 -3.397378,10.19214 -4.579075,26.44047 -17.430029,-0.29542 -38.5528615,-0.29542 -10.48756,0 -23.7816505,0.14771 -13.29409,0.14771 -21.861392,0.29542 0,-7.09018 1.181697,-11.52154 4.135939,-0.29543 6.056196,-1.62484 2.06797,-1.3294 2.80653,-4.57907 0.886273,-3.39738 0.886273,-10.33985 l 0,-44.90448 q 0,-6.79476 -0.73856,-9.89671 -0.738561,-3.24967 -2.806531,-4.43137 -1.920257,-1.32941 -6.35162,-1.92025 -1.033985,-4.13594 -1.033985,-11.52155 13.737226,0.44314 40.02998225,0.44314 27.47445275,0 39.88227075,-0.44314 0.147712,6.35162 0.886272,13.88494 0.886273,7.53332 2.215682,12.40782 -6.942469,2.65882 -14.918923,2.65882 -1.624834,-8.86273 -5.908485,-13.14638 -4.283651,-4.28365 -14.4757869,-4.28365 l -7.23789351,0 0,33.53065 0.14771211,0 q 6.9424693,0 9.3058631,-2.21569 2.5111062,-2.36339 2.6588182,-8.27187 4.579075,-1.77255 12.998666,-1.77255 -0.590849,9.45358 -0.590849,17.28232 0,9.01044 0.590849,17.57774 -8.419591,0 -12.703242,-1.47712 -0.590848,-6.0562 -3.1019543,-7.97646 -2.5111059,-2.06797 -9.158151,-2.06797 l -0.14771211,0 0,15.8052 q 0,6.94247 1.03398481,10.63527 1.0339848,3.69281 3.3973786,5.16993 2.5111059,1.47712 7.090181,1.47712 l 2.511106,0 q 7.533318,0 11.816969,-4.57908 4.431364,-4.72679 7.385606,-15.50977 z"
         style="font-style:normal;font-variant:normal;font-weight:bold;font-stretch:normal;font-size:147.71211243px;line-height:125%;font-family:Vollkorn;-inkscape-font-specification:'Vollkorn, Bold';text-align:start;writing-mode:lr-tb;text-anchor:start;opacity:1;fill:#e0a0a0;fill-opacity:1"
         id="path4298" />
      <path
         d="m 64.783521,475.1729 q -0.295424,-4.28366 -2.658818,-6.20391 -2.215682,-2.06797 -8.271878,-2.65882 0,-7.38561 1.920257,-11.07841 10.339848,0 19.202575,-1.47712 8.862727,-1.47712 12.703241,-3.39738 5.169924,2.36339 5.169924,9.45358 l 0,72.52664 q 0,5.02222 0.738561,7.68103 0.886273,2.65882 2.954242,3.84052 2.06797,1.03398 6.056195,1.32941 1.1817,3.6928 1.1817,11.52154 -5.465349,-0.44313 -24.963348,-0.44313 -19.645711,0 -24.963347,0.44313 0,-7.97645 1.329409,-11.52154 3.988227,-0.29543 5.908484,-1.32941 2.06797,-1.1817 2.80653,-3.6928 0.886273,-2.65882 0.886273,-7.82875 l 0,-57.16458 z"
         style="font-style:normal;font-variant:normal;font-weight:bold;font-stretch:normal;font-size:147.71211243px;line-height:125%;font-family:Vollkorn;-inkscape-font-specification:'Vollkorn, Bold';text-align:start;writing-mode:lr-tb;text-anchor:start;opacity:1;fill:#e0a0a0;fill-opacity:1"
         id="path4300" />
      <path
         d="m 150.4427,557.59625 q -18.61173,0 -28.95158,-8.5673 -10.19213,-8.71501 -10.19213,-26.29275 0,-9.15815 4.13593,-17.28232 4.28366,-8.12417 12.70325,-13.14638 8.5673,-5.02221 20.53198,-5.02221 8.71501,0 14.91892,1.47712 6.35162,1.32941 11.81697,4.28365 -1.92025,7.82874 -1.92025,19.498 -5.61307,2.51111 -15.50978,2.51111 0,-8.27188 -2.36339,-12.70325 -2.21568,-4.43136 -6.20391,-4.43136 -5.02221,0 -7.82874,6.49933 -2.65882,6.35163 -2.65882,16.24834 0,9.60128 4.72679,16.54375 4.72679,6.79476 14.32807,6.79476 9.01044,0 14.77121,-3.39738 3.39738,3.6928 3.39738,9.45358 -3.84051,3.54509 -10.63527,5.61306 -6.79476,1.92025 -15.06663,1.92025 z"
         style="font-style:normal;font-variant:normal;font-weight:bold;font-stretch:normal;font-size:147.71211243px;line-height:125%;font-family:Vollkorn;-inkscape-font-specification:'Vollkorn, Bold';text-align:start;writing-mode:lr-tb;text-anchor:start;opacity:1;fill:#e0a0a0;fill-opacity:1"
         id="path4302" />
      <path
         d="m 275.48331,545.18844 q 1.62483,3.98822 1.62483,11.52154 -13.29409,-0.44313 -20.53198,-0.44313 -17.43003,0 -24.07708,0.44313 0,-7.53332 1.47713,-11.52154 7.09018,0 7.09018,-14.47579 l 0,-10.19214 q 0,-8.27187 -2.21568,-11.66925 -2.06797,-3.54509 -6.94247,-3.54509 -5.46535,0 -9.01044,6.49933 -3.39738,6.35162 -3.39738,16.39604 l 0,4.13594 q 0,7.38561 1.62483,10.19214 1.77255,2.65882 5.31764,2.65882 1.03398,2.5111 1.32941,5.16992 0.29542,2.51111 0.29542,6.35162 -6.64704,-0.44313 -22.59995,-0.44313 -18.3163,0 -24.96335,0.44313 0,-7.68103 1.47712,-11.52154 5.61306,0 7.53332,-2.65882 1.92026,-2.65882 1.92026,-10.19214 l 0,-55.68746 q 0,-5.31764 -2.21568,-7.53332 -2.21569,-2.21568 -8.71502,-2.80653 0,-7.38561 1.92026,-11.07841 10.33985,0 19.20257,-1.47712 8.86273,-1.47712 12.70324,-3.39738 5.16993,2.36339 5.16993,9.45358 l 0,36.92802 q 0,3.24967 -1.77255,9.01044 1.47712,-3.6928 2.65882,-5.90848 1.32941,-2.21568 3.10196,-3.98823 3.6928,-3.6928 8.71501,-5.76077 5.16992,-2.06797 11.22612,-2.06797 10.9307,0 18.3163,6.0562 7.38561,5.90848 7.38561,18.02087 l 0,20.23656 q 0,7.38561 1.32941,10.19214 1.32941,2.65882 5.02221,2.65882 z"
         style="font-style:normal;font-variant:normal;font-weight:bold;font-stretch:normal;font-size:147.71211243px;line-height:125%;font-family:Vollkorn;-inkscape-font-specification:'Vollkorn, Bold';text-align:start;writing-mode:lr-tb;text-anchor:start;opacity:1;fill:#e0a0a0;fill-opacity:1"
         id="path4304" />
      <path
         d="m 374.81047,488.6147 q 8.41959,0 14.77121,-0.44314 0,2.65882 -0.44313,6.0562 -0.44314,3.39738 -1.32941,5.31763 -3.39738,0.73857 -5.31764,2.80653 -1.92025,2.06797 -3.39738,6.79476 l -14.18036,48.44957 q -13.14638,0 -16.83918,-1.3294 -6.20391,-12.85096 -9.01044,-19.05487 -2.80653,-6.35162 -4.72679,-13.29409 l -15.06663,33.67836 q -13.14638,0 -16.83918,-1.3294 -10.48756,-31.01955 -16.98689,-48.00644 -1.62484,-4.28365 -3.69281,-6.35162 -2.06797,-2.06797 -5.16992,-2.21568 -1.77255,-5.31764 -1.77255,-11.52155 11.37384,0.44314 21.56597,0.44314 13.88494,0 24.96335,-0.44314 0,5.76077 -1.77255,11.37383 -2.65881,0.29543 -3.6928,0.88628 -1.03398,0.44313 -1.03398,2.06797 0,1.47712 0.73856,4.28365 0.88627,2.65882 1.03398,3.39738 2.80653,9.749 3.98823,15.80519 l 14.77121,-38.25743 q 8.41959,0 12.11239,1.3294 8.86273,19.20258 15.8052,38.10973 l 4.13594,-16.98689 q 0.59085,-2.3634 0.59085,-4.57908 0,-2.65882 -1.32941,-3.98823 -1.32941,-1.3294 -4.43137,-2.06797 -1.62483,-4.8745 -1.62483,-11.37383 5.76077,0.44314 14.18036,0.44314 z"
         style="font-style:normal;font-variant:normal;font-weight:bold;font-stretch:normal;font-size:147.71211243px;line-height:125%;font-family:Vollkorn;-inkscape-font-specification:'Vollkorn, Bold';text-align:start;writing-mode:lr-tb;text-anchor:start;opacity:1;fill:#e0a0a0;fill-opacity:1"
         id="path4306" />
      <path
         d="m 472.94209,540.90479 q 0.29543,1.32941 0.29543,3.84051 0,4.43136 -1.92026,7.82874 -14.32807,0.29543 -26.58818,5.02221 -3.10195,-1.18169 -4.43136,-3.24966 -1.1817,-2.06797 -1.1817,-5.16993 0,-3.6928 1.03399,-7.3856 -3.10196,6.79476 -7.2379,10.04442 -7.3856,5.46535 -17.43003,5.46535 -23.63394,0 -23.63394,-17.72545 0,-9.30587 7.38561,-14.6235 7.38561,-5.31764 16.24833,-7.53332 9.01044,-2.21568 21.12283,-3.84051 0,-5.02222 -0.73856,-7.97646 -0.73856,-2.95424 -2.65881,-5.02221 -1.32941,-1.47712 -3.39738,-2.21568 -2.06797,-0.88628 -4.13594,-0.88628 -4.72679,0 -7.23789,4.13594 -2.51111,4.13594 -3.39738,11.96469 -5.90849,0 -9.45358,-0.29543 -3.39738,-0.44314 -6.64704,-1.62483 0.29542,-3.84052 0.29542,-6.0562 0,-5.76077 -1.32941,-12.99866 14.18036,-5.31764 31.75811,-5.31764 11.66925,0 18.16859,1.77254 6.49933,1.62484 10.04442,5.61306 3.24967,3.39738 5.02221,8.71502 1.77255,5.31764 1.77255,15.06663 l 0,9.749 q 0,5.61306 0.59084,8.12417 0.59085,2.51111 2.21569,3.54509 1.77254,0.88627 5.46534,1.03399 z m -36.33718,-17.87317 q -9.30586,1.77255 -13.4418,4.72679 -3.98822,2.95424 -3.98822,7.23789 0,6.20391 5.61306,6.20391 4.57907,0 8.12416,-4.13594 3.6928,-4.28365 3.6928,-11.52154 l 0,-2.51111 z"
         style="font-style:normal;font-variant:normal;font-weight:bold;font-stretch:normal;font-size:147.71211243px;line-height:125%;font-family:Vollkorn;-inkscape-font-specification:'Vollkorn, Bold';text-align:start;writing-mode:lr-tb;text-anchor:start;opacity:1;fill:#e0a0a0;fill-opacity:1"
         id="path4308" />
      <path
         d="m 489.16733,475.1729 q -0.29543,-4.28366 -2.65882,-6.20391 -2.21568,-2.06797 -8.27188,-2.65882 0,-7.38561 1.92026,-11.07841 10.33984,0 19.20257,-1.47712 8.86273,-1.47712 12.70324,-3.39738 5.16993,2.36339 5.16993,9.45358 l 0,72.52664 q 0,5.02222 0.73856,7.68103 0.88627,2.65882 2.95424,3.84052 2.06797,1.03398 6.0562,1.32941 1.18169,3.6928 1.18169,11.52154 -5.46535,-0.44313 -24.96334,-0.44313 -19.64571,0 -24.96335,0.44313 0,-7.97645 1.32941,-11.52154 3.98823,-0.29543 5.90848,-1.32941 2.06797,-1.1817 2.80653,-3.6928 0.88628,-2.65882 0.88628,-7.82875 l 0,-57.16458 z"
         style="font-style:normal;font-variant:normal;font-weight:bold;font-stretch:normal;font-size:147.71211243px;line-height:125%;font-family:Vollkorn;-inkscape-font-specification:'Vollkorn, Bold';text-align:start;writing-mode:lr-tb;text-anchor:start;opacity:1;fill:#e0a0a0;fill-opacity:1"
         id="path4310" />
      <path
         d="m 625.04863,540.90479 q 0.29543,1.32941 0.29543,3.84051 0,4.43136 -1.92026,7.82874 -14.32807,0.29543 -26.58818,5.02221 -3.10195,-1.18169 -4.43136,-3.24966 -1.1817,-2.06797 -1.1817,-5.16993 0,-1.62483 0.59085,-5.46534 -3.39738,5.46534 -6.94247,8.12416 -3.10196,2.3634 -8.27188,4.13594 -5.02221,1.62483 -10.63527,1.62483 -13.58952,0 -22.00911,-7.3856 -8.27187,-7.38561 -8.27187,-22.45224 0,-12.1124 5.46534,-21.27055 5.46535,-9.15815 15.21435,-14.18036 9.89671,-5.02221 22.89538,-5.02221 4.72679,0 9.45357,1.03398 l 0,-11.66925 q 0,-5.31764 -2.21568,-7.53332 -2.21568,-2.21568 -8.71501,-2.80653 0,-7.38561 1.92025,-11.07841 10.33985,0 19.20258,-1.47712 8.86273,-1.47712 12.70324,-3.39738 5.16993,2.36339 5.16993,9.45358 l 0,67.50443 q 0,6.0562 0.59084,8.86273 0.59085,2.65882 2.21569,3.6928 1.77254,0.88627 5.46534,1.03399 z m -49.63127,2.21568 q 5.61306,0 9.45358,-5.31764 3.84051,-5.46535 3.84051,-16.98689 l 0,-18.02088 q -2.06797,-2.65882 -4.28365,-3.84051 -2.06797,-1.1817 -5.02221,-1.1817 -6.49933,0 -11.07841,5.61306 -4.43136,5.46535 -4.43136,20.08885 0,8.41959 2.5111,14.03265 2.65882,5.61306 9.01044,5.61306 z"
         style="font-style:normal;font-variant:normal;font-weight:bold;font-stretch:normal;font-size:147.71211243px;line-height:125%;font-family:Vollkorn;-inkscape-font-specification:'Vollkorn, Bold';text-align:start;writing-mode:lr-tb;text-anchor:start;opacity:1;fill:#e0a0a0;fill-opacity:1"
         id="path4312" />
    </g>
  </g>
</svg>
