<?xml version="1.0" encoding="UTF-8" standalone="no"?>
<!-- Created with Inkscape (http://www.inkscape.org/) -->

<svg
   xmlns:dc="http://purl.org/dc/elements/1.1/"
   xmlns:cc="http://creativecommons.org/ns#"
   xmlns:rdf="http://www.w3.org/1999/02/22-rdf-syntax-ns#"
   xmlns:svg="http://www.w3.org/2000/svg"
   xmlns="http://www.w3.org/2000/svg"
   xmlns:sodipodi="http://sodipodi.sourceforge.net/DTD/sodipodi-0.dtd"
   xmlns:inkscape="http://www.inkscape.org/namespaces/inkscape"
   width="64.681587mm"
   height="57.508263mm"
   viewBox="0 0 229.18675 203.76943"
   id="svg2"
   version="1.1"
   inkscape:version="0.91 r13725"
   sodipodi:docname="dove.svg">
  <defs
     id="defs4">
    <filter
       style="color-interpolation-filters:sRGB"
       inkscape:label="Drop Shadow"
       id="filter4486">
      <feFlood
         flood-opacity="0.498039"
         flood-color="rgb(0,0,0)"
         result="flood"
         id="feFlood4488" />
      <feComposite
         in="flood"
         in2="SourceGraphic"
         operator="in"
         result="composite1"
         id="feComposite4490" />
      <feGaussianBlur
         in="composite1"
         stdDeviation="0.8"
         result="blur"
         id="feGaussianBlur4492" />
      <feOffset
         dx="1.1"
         dy="1.1"
         result="offset"
         id="feOffset4494" />
      <feComposite
         in="SourceGraphic"
         in2="offset"
         operator="over"
         result="composite2"
         id="feComposite4496" />
    </filter>
    <filter
       inkscape:collect="always"
       style="color-interpolation-filters:sRGB"
       id="filter4798"
       x="-0.087734445"
       width="1.1754689"
       y="-0.080570491"
       height="1.161141">
      <feGaussianBlur
         inkscape:collect="always"
         stdDeviation="1.3008777"
         id="feGaussianBlur4800" />
    </filter>
  </defs>
  <sodipodi:namedview
     id="base"
     pagecolor="#ffffff"
     bordercolor="#666666"
     borderopacity="1.0"
     inkscape:pageopacity="0.0"
     inkscape:pageshadow="2"
     inkscape:zoom="2.8"
     inkscape:cx="67.593513"
     inkscape:cy="98.359477"
     inkscape:document-units="px"
     inkscape:current-layer="layer1"
     showgrid="false"
     fit-margin-top="0"
     fit-margin-left="0"
     fit-margin-right="0"
     fit-margin-bottom="0"
     inkscape:window-width="1916"
     inkscape:window-height="1156"
     inkscape:window-x="1280"
     inkscape:window-y="42"
     inkscape:window-maximized="0" />
  <metadata
     id="metadata7">
    <rdf:RDF>
      <cc:Work
         rdf:about="">
        <dc:format>image/svg+xml</dc:format>
        <dc:type
           rdf:resource="http://purl.org/dc/dcmitype/StillImage" />
        <dc:title></dc:title>
      </cc:Work>
    </rdf:RDF>
  </metadata>
  <g
     inkscape:label="Ebene 1"
     inkscape:groupmode="layer"
     id="layer1"
     transform="translate(-351.95251,-291.28303)">
    <g
       style="font-style:normal;font-weight:normal;font-size:40px;line-height:125%;font-family:sans-serif;letter-spacing:0px;word-spacing:0px;opacity:0.899;fill:#000000;fill-opacity:1;stroke:none;stroke-width:0.5563997;stroke-linecap:round;stroke-linejoin:round;stroke-miterlimit:4;stroke-dasharray:none;stroke-opacity:1;filter:url(#filter4798)"
       id="text4136"
       transform="matrix(4.4931727,0,0,4.4931727,-1135.0718,-1595.3947)">
      <path
         d="m 377.79297,424.98499 q 0,0.625 -0.74219,1.77734 -0.41016,0.56641 -1.09375,1.75781 -0.39062,1.07422 -1.23047,3.20313 -0.68359,1.67968 -1.85547,2.79297 -0.42968,-0.41016 -0.83984,-0.87891 0.99609,-0.95703 1.66016,-2.71484 0.95703,-2.53907 1.1914,-2.96875 -2.46094,0.9375 -2.96875,1.23046 -1.48437,0.89844 -1.85547,2.5 -0.52734,-0.35156 -1.13281,-0.48828 0.54688,-2.03125 1.89453,-2.91015 0.60547,-0.39063 2.69531,-1.01563 1.75782,-0.54687 2.67579,-1.44531 0,0 0.5664,-0.76172 0.42969,-0.58594 0.625,-0.58594 0.41016,0 0.41016,0.50782 z m -4.31641,10.99609 q -1.75781,0.58594 -2.20703,0.83984 Q 370,437.52405 370,438.57874 q 0,0.37109 0.39062,2.32421 0.44922,2.26563 0.44922,4.82422 0,3.30078 -2.01172,5.83985 -2.16796,2.7539 -5.37109,2.7539 -4.96094,0 -5.52734,1.69922 -0.3125,2.03125 -0.60547,4.04297 -0.52735,3.16406 -1.48438,3.16406 -0.41015,0 -0.80078,-0.39062 -0.3125,-0.3711 -0.625,-0.72266 -0.19531,0.0586 -0.64453,0.42969 -0.35156,0.29297 -0.76172,0.29297 -0.54687,0 -0.97656,-0.87891 -0.42969,-0.85937 -0.58594,-0.85937 -0.19531,0 -0.70312,0.21484 -0.48828,0.23438 -0.80078,0.23438 -0.91797,0 -1.15235,-0.89844 -0.21484,-0.87891 -0.41015,-0.87891 -0.19532,0 -0.58594,0.0391 -0.3711,0.0586 -0.56641,0.0586 -0.89844,0 -0.89844,-0.58594 0,-0.3125 0.27344,-0.87891 0.27344,-0.54687 0.27344,-0.85937 0,-0.15625 -0.91797,-0.50781 -0.89844,-0.33203 -0.89844,-0.9375 0,-0.66407 0.6836,-1.01563 0.70312,-0.35156 1.95312,-0.60547 1.77735,-0.37109 2.01172,-0.42968 2.20703,-0.625 3.33984,-1.81641 0.72266,-0.76172 2.05079,-3.22266 0.66406,-1.25 0.83984,-1.60156 0.50781,-1.03516 0.60547,-1.66016 -2.51953,-1.30859 -4.375,-1.48437 -0.64453,0 -1.875,-0.21484 -0.70313,-0.25391 -0.70313,-0.80079 0,-0.13671 0.0391,-0.37109 0.0391,-0.25391 0.0391,-0.39062 0,-0.39063 -1.32813,-0.82032 -1.30859,-0.42968 -1.30859,-1.25 0,-0.21484 0.15625,-0.58593 0.17578,-0.3711 0.17578,-0.58594 0,-0.29297 -1.54297,-0.76172 -1.54297,-0.46875 -1.54297,-1.23047 0,-0.3125 0.17578,-0.87891 0.17579,-0.5664 0.17579,-0.8789 0,-0.39063 -0.56641,-0.83985 -0.44922,-0.33203 -0.89844,-0.64453 -0.95703,-0.85937 -0.95703,-4.19922 0,-0.15625 0.0195,-0.29296 1.77735,1.03515 3.78906,1.32812 2.75391,0.15625 5.50782,0.3125 3.94531,0.23438 5.9375,1.15234 2.79297,1.26954 2.79297,4.10157 0,0.29297 -0.0391,0.85937 -0.0391,0.56641 -0.0391,0.85938 0,2.38281 1.52344,2.38281 1.42578,0 2.10937,-2.59766 0.3125,-1.36718 0.625,-2.71484 0.41016,-1.58203 1.11328,-2.32422 0.89844,-0.99609 2.53907,-0.99609 1.38672,0 2.38281,1.1914 1.75781,2.08985 3.00781,2.91016 z m -2.28515,-0.33203 q -0.48829,-0.42969 -1.50391,-1.77735 -0.58594,-0.78125 -1.46484,-0.78125 -1.77735,0 -2.5586,2.2461 -0.58594,2.07031 -1.15234,4.16015 -0.85938,2.2461 -2.8125,2.2461 -2.85156,0 -2.85156,-3.51563 0,-0.3125 0.0391,-0.89843 0.0586,-0.60547 0.0586,-0.91797 0,-1.21094 -0.37109,-1.69922 -1.36719,-1.79688 -5.91797,-2.2461 -3.37891,-0.17578 -6.77734,-0.35156 -1.07422,-0.11719 -2.26563,-0.58594 l 0,0.66407 q 0,0.52734 1.11328,1.44531 1.13281,0.89844 1.13281,1.77734 0,0.3125 -0.21484,0.87891 -0.19531,0.56641 -0.19531,0.85937 0.0195,0.0195 0.13672,0.0195 0.0586,0 0.13672,0.0195 2.85156,0.70312 2.85156,2.05078 0,0.2539 -0.17578,0.64453 -0.15625,0.37109 -0.15625,0.52734 0,0 0.19531,0 0.0977,0 0.17578,0.0195 1.19141,0.29297 1.67969,0.70313 0.625,0.54687 0.54687,1.66016 3.37891,0.29296 7.26563,2.08984 -0.13672,1.50391 -1.5625,4.19922 -1.3086,2.5 -2.48047,3.80859 -1.30859,1.44531 -3.30078,2.03125 -1.875,0.46875 -3.76953,0.91797 -0.19532,0.0586 -0.56641,0.25391 1.67969,0.35156 1.67969,1.36718 0,0.3711 -0.3711,1.21094 0.29297,-0.0977 0.64454,-0.0977 0.82031,0 1.15234,0.50781 0.15625,0.21484 0.42969,1.1914 l -0.0195,0.0586 q 0.19531,0 0.66406,-0.23438 0.48828,-0.21484 0.83984,-0.21484 1.07422,0 1.71875,1.64062 0.74219,-0.625 1.25,-0.625 0.72266,0 1.28906,0.80079 0.48829,-1.03516 0.64454,-2.94922 0.19531,-2.1875 0.44921,-3.00782 0.83985,-2.65625 6.58204,-2.65625 2.26562,0 4.19921,-2.10937 2.05079,-2.22656 2.05079,-5.41016 0,-0.44922 -0.23438,-2.1875 l -0.54687,-4.04297 q -0.0781,-0.58593 -0.0781,-0.82031 0,-1.89453 2.42188,-2.87109 z m -1.77735,-0.60547 q 0,0.74219 -0.74219,0.74219 -0.76171,0 -0.76171,-0.74219 0,-0.74219 0.76171,-0.74219 0.74219,0 0.74219,0.74219 z"
         id="path4143"
         inkscape:connector-curvature="0"
         style="fill:#000000;stroke:none;stroke-width:0.5563997;stroke-linecap:round;stroke-linejoin:round;stroke-miterlimit:4;stroke-dasharray:none;stroke-opacity:1" />
    </g>
    <text
       xml:space="preserve"
       style="font-style:normal;font-weight:normal;font-size:40px;line-height:125%;font-family:sans-serif;letter-spacing:0px;word-spacing:0px;fill:#000000;fill-opacity:1;stroke:none;stroke-width:1px;stroke-linecap:butt;stroke-linejoin:miter;stroke-opacity:1;opacity:0.899;"
       x="512.92468"
       y="371.74707"
       id="text4149"
       sodipodi:linespacing="125%"><tspan
         sodipodi:role="line"
         id="tspan4151"
         x="512.92468"
         y="371.74707" /></text>
    <g
       transform="matrix(4.4931727,0,0,4.4931727,-1148.286,-1615.0376)"
       id="g4594"
       style="font-style:normal;font-weight:normal;font-size:40px;line-height:125%;font-family:sans-serif;letter-spacing:0px;word-spacing:0px;fill:#ffffff;fill-opacity:1;stroke:#ffffff;stroke-width:0.89023954;stroke-linecap:round;stroke-linejoin:round;stroke-miterlimit:4;stroke-dasharray:none;stroke-opacity:1;opacity:0.899">
      <path
         style="fill:#ffffff;stroke:#ffffff;stroke-width:0.89023954;stroke-linecap:round;stroke-linejoin:round;stroke-miterlimit:4;stroke-dasharray:none;stroke-opacity:1"
         inkscape:connector-curvature="0"
         id="path4596"
         d="m 377.79297,424.98499 q 0,0.625 -0.74219,1.77734 -0.41016,0.56641 -1.09375,1.75781 -0.39062,1.07422 -1.23047,3.20313 -0.68359,1.67968 -1.85547,2.79297 -0.42968,-0.41016 -0.83984,-0.87891 0.99609,-0.95703 1.66016,-2.71484 0.95703,-2.53907 1.1914,-2.96875 -2.46094,0.9375 -2.96875,1.23046 -1.48437,0.89844 -1.85547,2.5 -0.52734,-0.35156 -1.13281,-0.48828 0.54688,-2.03125 1.89453,-2.91015 0.60547,-0.39063 2.69531,-1.01563 1.75782,-0.54687 2.67579,-1.44531 0,0 0.5664,-0.76172 0.42969,-0.58594 0.625,-0.58594 0.41016,0 0.41016,0.50782 z m -4.31641,10.99609 q -1.75781,0.58594 -2.20703,0.83984 Q 370,437.52405 370,438.57874 q 0,0.37109 0.39062,2.32421 0.44922,2.26563 0.44922,4.82422 0,3.30078 -2.01172,5.83985 -2.16796,2.7539 -5.37109,2.7539 -4.96094,0 -5.52734,1.69922 -0.3125,2.03125 -0.60547,4.04297 -0.52735,3.16406 -1.48438,3.16406 -0.41015,0 -0.80078,-0.39062 -0.3125,-0.3711 -0.625,-0.72266 -0.19531,0.0586 -0.64453,0.42969 -0.35156,0.29297 -0.76172,0.29297 -0.54687,0 -0.97656,-0.87891 -0.42969,-0.85937 -0.58594,-0.85937 -0.19531,0 -0.70312,0.21484 -0.48828,0.23438 -0.80078,0.23438 -0.91797,0 -1.15235,-0.89844 -0.21484,-0.87891 -0.41015,-0.87891 -0.19532,0 -0.58594,0.0391 -0.3711,0.0586 -0.56641,0.0586 -0.89844,0 -0.89844,-0.58594 0,-0.3125 0.27344,-0.87891 0.27344,-0.54687 0.27344,-0.85937 0,-0.15625 -0.91797,-0.50781 -0.89844,-0.33203 -0.89844,-0.9375 0,-0.66407 0.6836,-1.01563 0.70312,-0.35156 1.95312,-0.60547 1.77735,-0.37109 2.01172,-0.42968 2.20703,-0.625 3.33984,-1.81641 0.72266,-0.76172 2.05079,-3.22266 0.66406,-1.25 0.83984,-1.60156 0.50781,-1.03516 0.60547,-1.66016 -2.51953,-1.30859 -4.375,-1.48437 -0.64453,0 -1.875,-0.21484 -0.70313,-0.25391 -0.70313,-0.80079 0,-0.13671 0.0391,-0.37109 0.0391,-0.25391 0.0391,-0.39062 0,-0.39063 -1.32813,-0.82032 -1.30859,-0.42968 -1.30859,-1.25 0,-0.21484 0.15625,-0.58593 0.17578,-0.3711 0.17578,-0.58594 0,-0.29297 -1.54297,-0.76172 -1.54297,-0.46875 -1.54297,-1.23047 0,-0.3125 0.17578,-0.87891 0.17579,-0.5664 0.17579,-0.8789 0,-0.39063 -0.56641,-0.83985 -0.44922,-0.33203 -0.89844,-0.64453 -0.95703,-0.85937 -0.95703,-4.19922 0,-0.15625 0.0195,-0.29296 1.77735,1.03515 3.78906,1.32812 2.75391,0.15625 5.50782,0.3125 3.94531,0.23438 5.9375,1.15234 2.79297,1.26954 2.79297,4.10157 0,0.29297 -0.0391,0.85937 -0.0391,0.56641 -0.0391,0.85938 0,2.38281 1.52344,2.38281 1.42578,0 2.10937,-2.59766 0.3125,-1.36718 0.625,-2.71484 0.41016,-1.58203 1.11328,-2.32422 0.89844,-0.99609 2.53907,-0.99609 1.38672,0 2.38281,1.1914 1.75781,2.08985 3.00781,2.91016 z m -2.28515,-0.33203 q -0.48829,-0.42969 -1.50391,-1.77735 -0.58594,-0.78125 -1.46484,-0.78125 -1.77735,0 -2.5586,2.2461 -0.58594,2.07031 -1.15234,4.16015 -0.85938,2.2461 -2.8125,2.2461 -2.85156,0 -2.85156,-3.51563 0,-0.3125 0.0391,-0.89843 0.0586,-0.60547 0.0586,-0.91797 0,-1.21094 -0.37109,-1.69922 -1.36719,-1.79688 -5.91797,-2.2461 -3.37891,-0.17578 -6.77734,-0.35156 -1.07422,-0.11719 -2.26563,-0.58594 l 0,0.66407 q 0,0.52734 1.11328,1.44531 1.13281,0.89844 1.13281,1.77734 0,0.3125 -0.21484,0.87891 -0.19531,0.56641 -0.19531,0.85937 0.0195,0.0195 0.13672,0.0195 0.0586,0 0.13672,0.0195 2.85156,0.70312 2.85156,2.05078 0,0.2539 -0.17578,0.64453 -0.15625,0.37109 -0.15625,0.52734 0,0 0.19531,0 0.0977,0 0.17578,0.0195 1.19141,0.29297 1.67969,0.70313 0.625,0.54687 0.54687,1.66016 3.37891,0.29296 7.26563,2.08984 -0.13672,1.50391 -1.5625,4.19922 -1.3086,2.5 -2.48047,3.80859 -1.30859,1.44531 -3.30078,2.03125 -1.875,0.46875 -3.76953,0.91797 -0.19532,0.0586 -0.56641,0.25391 1.67969,0.35156 1.67969,1.36718 0,0.3711 -0.3711,1.21094 0.29297,-0.0977 0.64454,-0.0977 0.82031,0 1.15234,0.50781 0.15625,0.21484 0.42969,1.1914 l -0.0195,0.0586 q 0.19531,0 0.66406,-0.23438 0.48828,-0.21484 0.83984,-0.21484 1.07422,0 1.71875,1.64062 0.74219,-0.625 1.25,-0.625 0.72266,0 1.28906,0.80079 0.48829,-1.03516 0.64454,-2.94922 0.19531,-2.1875 0.44921,-3.00782 0.83985,-2.65625 6.58204,-2.65625 2.26562,0 4.19921,-2.10937 2.05079,-2.22656 2.05079,-5.41016 0,-0.44922 -0.23438,-2.1875 l -0.54687,-4.04297 q -0.0781,-0.58593 -0.0781,-0.82031 0,-1.89453 2.42188,-2.87109 z m -1.77735,-0.60547 q 0,0.74219 -0.74219,0.74219 -0.76171,0 -0.76171,-0.74219 0,-0.74219 0.76171,-0.74219 0.74219,0 0.74219,0.74219 z" />
    </g>
  </g>
</svg>
